<mxfile host="app.diagrams.net" modified="2021-01-17T17:52:14.597Z" agent="5.0 (Macintosh)" etag="55Uw2Twb7IKq9WF0Fs0U" version="14.2.3" type="github">
  <diagram id="itfFSbHJjzJmagY1wGEo" name="Page-1">
    <mxGraphModel dx="1266" dy="747" grid="1" gridSize="10" guides="1" tooltips="1" connect="1" arrows="1" fold="1" page="1" pageScale="1" pageWidth="850" pageHeight="1100" math="0" shadow="0">
      <root>
        <mxCell id="0" />
        <mxCell id="1" parent="0" />
        <mxCell id="X-N_1AyS5iZLXX1cf-D--36" value="Pool" style="swimlane;html=1;childLayout=stackLayout;resizeParent=1;resizeParentMax=0;startSize=20;horizontal=0;horizontalStack=1;dashed=1;strokeColor=#000000;strokeWidth=1;fillColor=none;fontSize=12;fontStyle=0" parent="1" vertex="1">
          <mxGeometry x="710" y="380" width="1290" height="630" as="geometry" />
        </mxCell>
        <mxCell id="X-N_1AyS5iZLXX1cf-D--37" value="POLICY OPTIMIZATION" style="swimlane;html=1;startSize=20;fontSize=12;" parent="X-N_1AyS5iZLXX1cf-D--36" vertex="1">
          <mxGeometry x="20" width="600" height="630" as="geometry" />
        </mxCell>
        <mxCell id="X-N_1AyS5iZLXX1cf-D--47" style="edgeStyle=orthogonalEdgeStyle;rounded=0;orthogonalLoop=1;jettySize=auto;html=1;exitX=0;exitY=0.5;exitDx=0;exitDy=0;fontSize=12;" parent="X-N_1AyS5iZLXX1cf-D--37" source="X-N_1AyS5iZLXX1cf-D--3" target="X-N_1AyS5iZLXX1cf-D--21" edge="1">
          <mxGeometry relative="1" as="geometry" />
        </mxCell>
        <mxCell id="X-N_1AyS5iZLXX1cf-D--55" style="edgeStyle=orthogonalEdgeStyle;rounded=0;orthogonalLoop=1;jettySize=auto;html=1;exitX=0.5;exitY=1;exitDx=0;exitDy=0;fontSize=12;" parent="X-N_1AyS5iZLXX1cf-D--37" source="X-N_1AyS5iZLXX1cf-D--3" target="X-N_1AyS5iZLXX1cf-D--1" edge="1">
          <mxGeometry relative="1" as="geometry" />
        </mxCell>
        <mxCell id="X-N_1AyS5iZLXX1cf-D--3" value="POLICY BASED" style="rounded=1;whiteSpace=wrap;html=1;strokeWidth=3;fontStyle=1;fontSize=12;" parent="X-N_1AyS5iZLXX1cf-D--37" vertex="1">
          <mxGeometry x="170" y="80" width="270" height="40" as="geometry" />
        </mxCell>
        <mxCell id="X-N_1AyS5iZLXX1cf-D--21" value="DETERMINISTIC POLICY GRADIENTS" style="rounded=1;whiteSpace=wrap;html=1;fontStyle=1;strokeWidth=3;fontSize=12;" parent="X-N_1AyS5iZLXX1cf-D--37" vertex="1">
          <mxGeometry x="20" y="480" width="140" height="40" as="geometry" />
        </mxCell>
        <mxCell id="X-N_1AyS5iZLXX1cf-D--57" style="edgeStyle=orthogonalEdgeStyle;rounded=0;orthogonalLoop=1;jettySize=auto;html=1;exitX=0.5;exitY=1;exitDx=0;exitDy=0;fontSize=12;" parent="X-N_1AyS5iZLXX1cf-D--37" source="X-N_1AyS5iZLXX1cf-D--1" target="X-N_1AyS5iZLXX1cf-D--13" edge="1">
          <mxGeometry relative="1" as="geometry" />
        </mxCell>
        <mxCell id="X-N_1AyS5iZLXX1cf-D--1" value="POLICY GRADIENTS" style="rounded=1;whiteSpace=wrap;html=1;fontStyle=1;strokeWidth=3;fontSize=12;" parent="X-N_1AyS5iZLXX1cf-D--37" vertex="1">
          <mxGeometry x="235" y="180" width="140" height="40" as="geometry" />
        </mxCell>
        <mxCell id="X-N_1AyS5iZLXX1cf-D--52" style="edgeStyle=orthogonalEdgeStyle;rounded=0;orthogonalLoop=1;jettySize=auto;html=1;exitX=0.5;exitY=1;exitDx=0;exitDy=0;fontSize=12;" parent="X-N_1AyS5iZLXX1cf-D--37" source="X-N_1AyS5iZLXX1cf-D--13" target="X-N_1AyS5iZLXX1cf-D--61" edge="1">
          <mxGeometry relative="1" as="geometry">
            <mxPoint x="340" y="360" as="targetPoint" />
          </mxGeometry>
        </mxCell>
        <mxCell id="X-N_1AyS5iZLXX1cf-D--53" style="edgeStyle=orthogonalEdgeStyle;rounded=0;orthogonalLoop=1;jettySize=auto;html=1;exitX=0.5;exitY=1;exitDx=0;exitDy=0;fontSize=12;" parent="X-N_1AyS5iZLXX1cf-D--37" source="X-N_1AyS5iZLXX1cf-D--13" target="X-N_1AyS5iZLXX1cf-D--85" edge="1">
          <mxGeometry relative="1" as="geometry">
            <mxPoint x="500.00000000000045" y="360" as="targetPoint" />
          </mxGeometry>
        </mxCell>
        <mxCell id="X-N_1AyS5iZLXX1cf-D--13" value="ACTOR CRITIC METHODS" style="rounded=1;whiteSpace=wrap;html=1;fontStyle=1;strokeWidth=3;fontSize=12;" parent="X-N_1AyS5iZLXX1cf-D--37" vertex="1">
          <mxGeometry x="235" y="260" width="140" height="40" as="geometry" />
        </mxCell>
        <mxCell id="X-N_1AyS5iZLXX1cf-D--61" value="&lt;div&gt;&lt;span&gt;A2C: Advantage &lt;br&gt;&lt;/span&gt;&lt;/div&gt;&lt;div&gt;&lt;span&gt;Actor Critic&lt;/span&gt;&lt;/div&gt;" style="shape=process;whiteSpace=wrap;html=1;backgroundOutline=1;strokeColor=#000000;strokeWidth=2;fillColor=none;fontSize=12;rounded=0;fontStyle=0;size=0.07142857142857142;" parent="X-N_1AyS5iZLXX1cf-D--37" vertex="1">
          <mxGeometry x="160" y="370" width="140" height="60" as="geometry" />
        </mxCell>
        <mxCell id="X-N_1AyS5iZLXX1cf-D--85" value="&lt;div&gt;&lt;span&gt;A3C: Asynchronous Advantage Actor Critic&lt;/span&gt;&lt;/div&gt;" style="shape=process;whiteSpace=wrap;html=1;backgroundOutline=1;strokeColor=#000000;strokeWidth=2;fillColor=none;fontSize=12;rounded=0;fontStyle=0;size=0.07142857142857142;" parent="X-N_1AyS5iZLXX1cf-D--37" vertex="1">
          <mxGeometry x="330" y="370" width="140" height="60" as="geometry" />
        </mxCell>
        <mxCell id="X-N_1AyS5iZLXX1cf-D--38" value="DYNAMIC PROGRAMMING" style="swimlane;html=1;startSize=20;fontSize=12;" parent="X-N_1AyS5iZLXX1cf-D--36" vertex="1">
          <mxGeometry x="620" width="670" height="630" as="geometry">
            <mxRectangle x="620" width="30" height="630" as="alternateBounds" />
          </mxGeometry>
        </mxCell>
        <mxCell id="X-N_1AyS5iZLXX1cf-D--114" style="edgeStyle=orthogonalEdgeStyle;rounded=0;orthogonalLoop=1;jettySize=auto;html=1;exitX=0.5;exitY=1;exitDx=0;exitDy=0;strokeColor=#000000;fontSize=12;" parent="X-N_1AyS5iZLXX1cf-D--38" source="X-N_1AyS5iZLXX1cf-D--18" target="X-N_1AyS5iZLXX1cf-D--23" edge="1">
          <mxGeometry relative="1" as="geometry" />
        </mxCell>
        <mxCell id="X-N_1AyS5iZLXX1cf-D--18" value="VALUE BASED" style="rounded=1;whiteSpace=wrap;html=1;strokeWidth=3;fontStyle=1;fontSize=12;" parent="X-N_1AyS5iZLXX1cf-D--38" vertex="1">
          <mxGeometry x="155" y="90" width="270" height="40" as="geometry" />
        </mxCell>
        <mxCell id="X-N_1AyS5iZLXX1cf-D--2" value="POLICY ITERATION" style="rounded=1;whiteSpace=wrap;html=1;fontStyle=1;strokeWidth=3;fontSize=12;" parent="X-N_1AyS5iZLXX1cf-D--38" vertex="1">
          <mxGeometry x="50" y="200" width="140" height="40" as="geometry" />
        </mxCell>
        <mxCell id="X-N_1AyS5iZLXX1cf-D--147" style="edgeStyle=orthogonalEdgeStyle;rounded=0;orthogonalLoop=1;jettySize=auto;html=1;exitX=0.5;exitY=1;exitDx=0;exitDy=0;startArrow=none;startFill=0;endArrow=classic;endFill=1;strokeColor=#000000;strokeWidth=1;fontSize=12;" parent="X-N_1AyS5iZLXX1cf-D--38" source="X-N_1AyS5iZLXX1cf-D--40" target="X-N_1AyS5iZLXX1cf-D--131" edge="1">
          <mxGeometry relative="1" as="geometry" />
        </mxCell>
        <mxCell id="X-N_1AyS5iZLXX1cf-D--40" value="Q LEARNING" style="rounded=1;whiteSpace=wrap;html=1;fontStyle=1;strokeWidth=3;fontSize=12;" parent="X-N_1AyS5iZLXX1cf-D--38" vertex="1">
          <mxGeometry x="410" y="200" width="140" height="40" as="geometry" />
        </mxCell>
        <mxCell id="X-N_1AyS5iZLXX1cf-D--136" style="edgeStyle=orthogonalEdgeStyle;rounded=0;orthogonalLoop=1;jettySize=auto;html=1;exitX=1;exitY=0.5;exitDx=0;exitDy=0;startArrow=oval;startFill=1;strokeColor=#000000;fontSize=12;" parent="X-N_1AyS5iZLXX1cf-D--38" source="X-N_1AyS5iZLXX1cf-D--23" target="X-N_1AyS5iZLXX1cf-D--40" edge="1">
          <mxGeometry relative="1" as="geometry" />
        </mxCell>
        <mxCell id="X-N_1AyS5iZLXX1cf-D--23" value="VALUE ITERATION" style="rounded=1;whiteSpace=wrap;html=1;fontStyle=1;strokeWidth=3;fontSize=12;" parent="X-N_1AyS5iZLXX1cf-D--38" vertex="1">
          <mxGeometry x="220" y="200" width="140" height="40" as="geometry" />
        </mxCell>
        <mxCell id="X-N_1AyS5iZLXX1cf-D--131" value="Deep Q Learning" style="shape=process;whiteSpace=wrap;html=1;backgroundOutline=1;strokeColor=#000000;strokeWidth=2;fillColor=none;fontSize=12;rounded=0;fontStyle=0;size=0.07142857142857142;" parent="X-N_1AyS5iZLXX1cf-D--38" vertex="1">
          <mxGeometry x="410" y="470" width="140" height="60" as="geometry" />
        </mxCell>
        <mxCell id="X-N_1AyS5iZLXX1cf-D--112" value="Deep Deterministic Policy Gradient" style="shape=process;whiteSpace=wrap;html=1;backgroundOutline=1;strokeColor=#000000;strokeWidth=2;fillColor=none;fontSize=12;rounded=0;fontStyle=0;size=0.07142857142857142;" parent="X-N_1AyS5iZLXX1cf-D--38" vertex="1">
          <mxGeometry x="15" y="470" width="140" height="60" as="geometry" />
        </mxCell>
        <mxCell id="X-N_1AyS5iZLXX1cf-D--148" style="edgeStyle=orthogonalEdgeStyle;rounded=0;orthogonalLoop=1;jettySize=auto;html=1;exitX=0.5;exitY=1;exitDx=0;exitDy=0;startArrow=none;startFill=0;endArrow=classic;endFill=1;strokeColor=#000000;strokeWidth=1;fontSize=12;entryX=0.5;entryY=0;entryDx=0;entryDy=0;" parent="X-N_1AyS5iZLXX1cf-D--38" source="X-N_1AyS5iZLXX1cf-D--40" target="X-N_1AyS5iZLXX1cf-D--112" edge="1">
          <mxGeometry relative="1" as="geometry">
            <mxPoint x="260" y="469.9999999999998" as="targetPoint" />
            <Array as="points">
              <mxPoint x="480" y="355" />
              <mxPoint x="85" y="355" />
            </Array>
          </mxGeometry>
        </mxCell>
        <mxCell id="X-N_1AyS5iZLXX1cf-D--149" value="IMPLEMENTED BY" style="edgeLabel;html=1;align=center;verticalAlign=middle;resizable=0;points=[];fontSize=12;" parent="X-N_1AyS5iZLXX1cf-D--148" vertex="1" connectable="0">
          <mxGeometry x="-0.7973" y="1" relative="1" as="geometry">
            <mxPoint as="offset" />
          </mxGeometry>
        </mxCell>
        <mxCell id="X-N_1AyS5iZLXX1cf-D--17" style="edgeStyle=orthogonalEdgeStyle;rounded=0;orthogonalLoop=1;jettySize=auto;html=1;exitX=1;exitY=0.5;exitDx=0;exitDy=0;fontSize=12;" parent="X-N_1AyS5iZLXX1cf-D--36" source="X-N_1AyS5iZLXX1cf-D--13" target="X-N_1AyS5iZLXX1cf-D--2" edge="1">
          <mxGeometry relative="1" as="geometry" />
        </mxCell>
        <mxCell id="X-N_1AyS5iZLXX1cf-D--49" style="edgeStyle=orthogonalEdgeStyle;rounded=0;orthogonalLoop=1;jettySize=auto;html=1;entryX=0;entryY=0.5;entryDx=0;entryDy=0;fontSize=12;" parent="X-N_1AyS5iZLXX1cf-D--36" source="X-N_1AyS5iZLXX1cf-D--3" target="X-N_1AyS5iZLXX1cf-D--2" edge="1">
          <mxGeometry relative="1" as="geometry" />
        </mxCell>
        <mxCell id="X-N_1AyS5iZLXX1cf-D--133" style="edgeStyle=orthogonalEdgeStyle;rounded=0;orthogonalLoop=1;jettySize=auto;html=1;exitX=1;exitY=0.5;exitDx=0;exitDy=0;startArrow=none;startFill=0;strokeColor=#000000;fontSize=12;" parent="X-N_1AyS5iZLXX1cf-D--36" source="X-N_1AyS5iZLXX1cf-D--13" target="X-N_1AyS5iZLXX1cf-D--23" edge="1">
          <mxGeometry relative="1" as="geometry" />
        </mxCell>
        <mxCell id="X-N_1AyS5iZLXX1cf-D--140" value="IMPLEMENTS" style="edgeLabel;html=1;align=center;verticalAlign=middle;resizable=0;points=[];fontSize=12;" parent="X-N_1AyS5iZLXX1cf-D--133" vertex="1" connectable="0">
          <mxGeometry x="-0.504" relative="1" as="geometry">
            <mxPoint as="offset" />
          </mxGeometry>
        </mxCell>
        <mxCell id="X-N_1AyS5iZLXX1cf-D--146" style="edgeStyle=orthogonalEdgeStyle;rounded=0;orthogonalLoop=1;jettySize=auto;html=1;exitX=1;exitY=0.5;exitDx=0;exitDy=0;startArrow=none;startFill=0;endArrow=classic;endFill=1;strokeColor=#000000;fontSize=12;" parent="X-N_1AyS5iZLXX1cf-D--36" source="X-N_1AyS5iZLXX1cf-D--21" target="X-N_1AyS5iZLXX1cf-D--112" edge="1">
          <mxGeometry relative="1" as="geometry" />
        </mxCell>
        <mxCell id="X-N_1AyS5iZLXX1cf-D--141" value="IMPLEMENTED BY" style="edgeLabel;html=1;align=center;verticalAlign=middle;resizable=0;points=[];fontSize=12;" parent="1" vertex="1" connectable="0">
          <mxGeometry x="1252.6470579258416" y="669.9842796873086" as="geometry">
            <mxPoint x="-145" y="29" as="offset" />
          </mxGeometry>
        </mxCell>
      </root>
    </mxGraphModel>
  </diagram>
</mxfile>
